<svg xmlns="http://www.w3.org/2000/svg" xmlns:xlink="http://www.w3.org/1999/xlink" width="518" zoomAndPan="magnify" viewBox="0 0 388.5 89.999999" height="120" preserveAspectRatio="xMidYMid meet" version="1.0"><defs><g/><clipPath id="0ed5de9824"><path d="M 0 0.0585938 L 388 0.0585938 L 388 89.941406 L 0 89.941406 Z M 0 0.0585938 " clip-rule="nonzero"/></clipPath><clipPath id="7b08b24e27"><path d="M 219 9.046875 L 278.183594 9.046875 L 278.183594 54.738281 L 219 54.738281 Z M 219 9.046875 " clip-rule="nonzero"/></clipPath></defs><g clip-path="url(#0ed5de9824)"><path fill="#ffffff" d="M 0 0.0585938 L 388 0.0585938 L 388 89.941406 L 0 89.941406 Z M 0 0.0585938 " fill-opacity="1" fill-rule="nonzero"/><path fill="#f1f1f1" d="M 0 0.0585938 L 388 0.0585938 L 388 89.941406 L 0 89.941406 Z M 0 0.0585938 " fill-opacity="1" fill-rule="nonzero"/></g><g clip-path="url(#7b08b24e27)"><path fill="#ff5757" d="M 240.503906 9.042969 C 237.660156 9.042969 235.074219 10.699219 233.878906 13.28125 L 220.355469 42.515625 C 218.257812 47.050781 220.234375 52.425781 224.765625 54.523438 L 240.140625 21.289062 C 241.042969 19.339844 242.996094 18.089844 245.144531 18.089844 L 269.101562 18.089844 C 274.097656 18.089844 278.144531 14.039062 278.144531 9.042969 Z M 259.726562 44.992188 L 237.980469 44.992188 C 234.214844 44.992188 231.160156 49.042969 231.160156 54.039062 L 252.90625 54.039062 C 256.671875 54.039062 259.726562 49.988281 259.726562 44.992188 Z M 260.914062 35.816406 L 239.167969 35.816406 C 239.167969 30.820312 242.222656 26.773438 245.988281 26.773438 L 267.734375 26.773438 C 267.734375 31.769531 264.683594 35.816406 260.914062 35.816406 " fill-opacity="1" fill-rule="nonzero"/></g><g fill="#5271ff" fill-opacity="1"><g transform="translate(18.155939, 67.245326)"><g><path d="M 5.234375 -44.15625 L 25.296875 -44.15625 C 30.085938 -44.15625 34.320312 -43.238281 38 -41.40625 C 41.6875 -39.582031 44.546875 -37.007812 46.578125 -33.6875 C 48.617188 -30.363281 49.640625 -26.492188 49.640625 -22.078125 C 49.640625 -17.660156 48.617188 -13.789062 46.578125 -10.46875 C 44.546875 -7.144531 41.6875 -4.566406 38 -2.734375 C 34.320312 -0.910156 30.085938 0 25.296875 0 L 5.234375 0 Z M 24.796875 -8.390625 C 29.203125 -8.390625 32.71875 -9.617188 35.34375 -12.078125 C 37.976562 -14.535156 39.296875 -17.867188 39.296875 -22.078125 C 39.296875 -26.285156 37.976562 -29.617188 35.34375 -32.078125 C 32.71875 -34.535156 29.203125 -35.765625 24.796875 -35.765625 L 15.453125 -35.765625 L 15.453125 -8.390625 Z M 24.796875 -8.390625 "/></g></g></g><g fill="#5271ff" fill-opacity="1"><g transform="translate(70.250881, 67.245326)"><g><path d="M 34.3125 -9.46875 L 13.8125 -9.46875 L 9.90625 0 L -0.5625 0 L 19.109375 -44.15625 L 29.203125 -44.15625 L 48.953125 0 L 38.21875 0 Z M 31.09375 -17.21875 L 24.09375 -34.125 L 17.09375 -17.21875 Z M 31.09375 -17.21875 "/></g></g></g><g fill="#5271ff" fill-opacity="1"><g transform="translate(118.56169, 67.245326)"><g><path d="M 45.734375 -44.15625 L 45.734375 0 L 37.34375 0 L 15.328125 -26.8125 L 15.328125 0 L 5.234375 0 L 5.234375 -44.15625 L 13.6875 -44.15625 L 35.640625 -17.34375 L 35.640625 -44.15625 Z M 45.734375 -44.15625 "/></g></g></g><g fill="#5271ff" fill-opacity="1"><g transform="translate(169.521403, 67.245326)"><g><path d="M 26.359375 0.75 C 21.867188 0.75 17.800781 -0.222656 14.15625 -2.171875 C 10.519531 -4.128906 7.660156 -6.84375 5.578125 -10.3125 C 3.492188 -13.78125 2.453125 -17.703125 2.453125 -22.078125 C 2.453125 -26.453125 3.492188 -30.375 5.578125 -33.84375 C 7.660156 -37.3125 10.519531 -40.019531 14.15625 -41.96875 C 17.800781 -43.925781 21.894531 -44.90625 26.4375 -44.90625 C 30.257812 -44.90625 33.710938 -44.234375 36.796875 -42.890625 C 39.890625 -41.546875 42.488281 -39.613281 44.59375 -37.09375 L 38.03125 -31.03125 C 35.050781 -34.476562 31.351562 -36.203125 26.9375 -36.203125 C 24.195312 -36.203125 21.753906 -35.601562 19.609375 -34.40625 C 17.472656 -33.207031 15.804688 -31.535156 14.609375 -29.390625 C 13.410156 -27.242188 12.8125 -24.804688 12.8125 -22.078125 C 12.8125 -19.347656 13.410156 -16.910156 14.609375 -14.765625 C 15.804688 -12.617188 17.472656 -10.945312 19.609375 -9.75 C 21.753906 -8.550781 24.195312 -7.953125 26.9375 -7.953125 C 31.351562 -7.953125 35.050781 -9.695312 38.03125 -13.1875 L 44.59375 -7.125 C 42.488281 -4.5625 39.878906 -2.609375 36.765625 -1.265625 C 33.660156 0.078125 30.191406 0.75 26.359375 0.75 Z M 26.359375 0.75 "/></g></g></g><g fill="#5271ff" fill-opacity="1"><g transform="translate(215.750921, 67.245326)"><g><path d="M 8.265625 0.5 C 6.535156 0.5 5.082031 -0.0859375 3.90625 -1.265625 C 2.726562 -2.441406 2.140625 -3.910156 2.140625 -5.671875 C 2.140625 -7.484375 2.726562 -8.945312 3.90625 -10.0625 C 5.082031 -11.175781 6.535156 -11.734375 8.265625 -11.734375 C 9.984375 -11.734375 11.429688 -11.175781 12.609375 -10.0625 C 13.785156 -8.945312 14.375 -7.484375 14.375 -5.671875 C 14.375 -3.910156 13.785156 -2.441406 12.609375 -1.265625 C 11.429688 -0.0859375 9.984375 0.5 8.265625 0.5 Z M 8.265625 0.5 "/></g></g></g><g fill="#5271ff" fill-opacity="1"><g transform="translate(232.275889, 67.245326)"><g/></g></g><g fill="#5271ff" fill-opacity="1"><g transform="translate(250.124397, 67.245326)"><g/></g></g><g fill="#5271ff" fill-opacity="1"><g transform="translate(267.972906, 67.245326)"><g/></g></g><g fill="#5271ff" fill-opacity="1"><g transform="translate(285.829776, 67.245326)"><g><path d="M 3.28125 -21.703125 L 21.125 -21.703125 L 21.125 -13.8125 L 3.28125 -13.8125 Z M 3.28125 -21.703125 "/></g></g></g><g fill="#5271ff" fill-opacity="1"><g transform="translate(310.174382, 67.245326)"><g><path d="M 5.234375 -44.15625 L 15.453125 -44.15625 L 15.453125 0 L 5.234375 0 Z M 5.234375 -44.15625 "/></g></g></g><g fill="#5271ff" fill-opacity="1"><g transform="translate(330.860997, 67.245326)"><g><path d="M 14.375 -35.828125 L 0.25 -35.828125 L 0.25 -44.15625 L 38.734375 -44.15625 L 38.734375 -35.828125 L 24.59375 -35.828125 L 24.59375 0 L 14.375 0 Z M 14.375 -35.828125 "/></g></g></g></svg>